<?xml version="1.0"?>
<svg xmlns="http://www.w3.org/2000/svg" xmlns:xlink="http://www.w3.org/1999/xlink" version="1.1" width="307px" height="307px" viewBox="0 0 307 307"><defs><rect id="block" width="7.0000000000" height="7.0000000000" fill="#000000" fill-opacity="1"/></defs><rect x="0" y="0" width="307" height="307" fill="#ffffff" fill-opacity="1"/><use x="10.0000000000" y="10.0000000000" xlink:href="#block"/><use x="17.0000000000" y="10.0000000000" xlink:href="#block"/><use x="24.0000000000" y="10.0000000000" xlink:href="#block"/><use x="31.0000000000" y="10.0000000000" xlink:href="#block"/><use x="38.0000000000" y="10.0000000000" xlink:href="#block"/><use x="45.0000000000" y="10.0000000000" xlink:href="#block"/><use x="52.0000000000" y="10.0000000000" xlink:href="#block"/><use x="94.0000000000" y="10.0000000000" xlink:href="#block"/><use x="122.0000000000" y="10.0000000000" xlink:href="#block"/><use x="136.0000000000" y="10.0000000000" xlink:href="#block"/><use x="150.0000000000" y="10.0000000000" xlink:href="#block"/><use x="199.0000000000" y="10.0000000000" xlink:href="#block"/><use x="206.0000000000" y="10.0000000000" xlink:href="#block"/><use x="234.0000000000" y="10.0000000000" xlink:href="#block"/><use x="248.0000000000" y="10.0000000000" xlink:href="#block"/><use x="255.0000000000" y="10.0000000000" xlink:href="#block"/><use x="262.0000000000" y="10.0000000000" xlink:href="#block"/><use x="269.0000000000" y="10.0000000000" xlink:href="#block"/><use x="276.0000000000" y="10.0000000000" xlink:href="#block"/><use x="283.0000000000" y="10.0000000000" xlink:href="#block"/><use x="290.0000000000" y="10.0000000000" xlink:href="#block"/><use x="10.0000000000" y="17.0000000000" xlink:href="#block"/><use x="52.0000000000" y="17.0000000000" xlink:href="#block"/><use x="87.0000000000" y="17.0000000000" xlink:href="#block"/><use x="101.0000000000" y="17.0000000000" xlink:href="#block"/><use x="108.0000000000" y="17.0000000000" xlink:href="#block"/><use x="122.0000000000" y="17.0000000000" xlink:href="#block"/><use x="136.0000000000" y="17.0000000000" xlink:href="#block"/><use x="150.0000000000" y="17.0000000000" xlink:href="#block"/><use x="164.0000000000" y="17.0000000000" xlink:href="#block"/><use x="171.0000000000" y="17.0000000000" xlink:href="#block"/><use x="178.0000000000" y="17.0000000000" xlink:href="#block"/><use x="199.0000000000" y="17.0000000000" xlink:href="#block"/><use x="206.0000000000" y="17.0000000000" xlink:href="#block"/><use x="213.0000000000" y="17.0000000000" xlink:href="#block"/><use x="220.0000000000" y="17.0000000000" xlink:href="#block"/><use x="248.0000000000" y="17.0000000000" xlink:href="#block"/><use x="290.0000000000" y="17.0000000000" xlink:href="#block"/><use x="10.0000000000" y="24.0000000000" xlink:href="#block"/><use x="24.0000000000" y="24.0000000000" xlink:href="#block"/><use x="31.0000000000" y="24.0000000000" xlink:href="#block"/><use x="38.0000000000" y="24.0000000000" xlink:href="#block"/><use x="52.0000000000" y="24.0000000000" xlink:href="#block"/><use x="66.0000000000" y="24.0000000000" xlink:href="#block"/><use x="73.0000000000" y="24.0000000000" xlink:href="#block"/><use x="80.0000000000" y="24.0000000000" xlink:href="#block"/><use x="94.0000000000" y="24.0000000000" xlink:href="#block"/><use x="108.0000000000" y="24.0000000000" xlink:href="#block"/><use x="143.0000000000" y="24.0000000000" xlink:href="#block"/><use x="150.0000000000" y="24.0000000000" xlink:href="#block"/><use x="171.0000000000" y="24.0000000000" xlink:href="#block"/><use x="206.0000000000" y="24.0000000000" xlink:href="#block"/><use x="227.0000000000" y="24.0000000000" xlink:href="#block"/><use x="234.0000000000" y="24.0000000000" xlink:href="#block"/><use x="248.0000000000" y="24.0000000000" xlink:href="#block"/><use x="262.0000000000" y="24.0000000000" xlink:href="#block"/><use x="269.0000000000" y="24.0000000000" xlink:href="#block"/><use x="276.0000000000" y="24.0000000000" xlink:href="#block"/><use x="290.0000000000" y="24.0000000000" xlink:href="#block"/><use x="10.0000000000" y="31.0000000000" xlink:href="#block"/><use x="24.0000000000" y="31.0000000000" xlink:href="#block"/><use x="31.0000000000" y="31.0000000000" xlink:href="#block"/><use x="38.0000000000" y="31.0000000000" xlink:href="#block"/><use x="52.0000000000" y="31.0000000000" xlink:href="#block"/><use x="66.0000000000" y="31.0000000000" xlink:href="#block"/><use x="73.0000000000" y="31.0000000000" xlink:href="#block"/><use x="87.0000000000" y="31.0000000000" xlink:href="#block"/><use x="101.0000000000" y="31.0000000000" xlink:href="#block"/><use x="122.0000000000" y="31.0000000000" xlink:href="#block"/><use x="136.0000000000" y="31.0000000000" xlink:href="#block"/><use x="150.0000000000" y="31.0000000000" xlink:href="#block"/><use x="157.0000000000" y="31.0000000000" xlink:href="#block"/><use x="164.0000000000" y="31.0000000000" xlink:href="#block"/><use x="178.0000000000" y="31.0000000000" xlink:href="#block"/><use x="199.0000000000" y="31.0000000000" xlink:href="#block"/><use x="206.0000000000" y="31.0000000000" xlink:href="#block"/><use x="213.0000000000" y="31.0000000000" xlink:href="#block"/><use x="248.0000000000" y="31.0000000000" xlink:href="#block"/><use x="262.0000000000" y="31.0000000000" xlink:href="#block"/><use x="269.0000000000" y="31.0000000000" xlink:href="#block"/><use x="276.0000000000" y="31.0000000000" xlink:href="#block"/><use x="290.0000000000" y="31.0000000000" xlink:href="#block"/><use x="10.0000000000" y="38.0000000000" xlink:href="#block"/><use x="24.0000000000" y="38.0000000000" xlink:href="#block"/><use x="31.0000000000" y="38.0000000000" xlink:href="#block"/><use x="38.0000000000" y="38.0000000000" xlink:href="#block"/><use x="52.0000000000" y="38.0000000000" xlink:href="#block"/><use x="66.0000000000" y="38.0000000000" xlink:href="#block"/><use x="73.0000000000" y="38.0000000000" xlink:href="#block"/><use x="87.0000000000" y="38.0000000000" xlink:href="#block"/><use x="101.0000000000" y="38.0000000000" xlink:href="#block"/><use x="122.0000000000" y="38.0000000000" xlink:href="#block"/><use x="143.0000000000" y="38.0000000000" xlink:href="#block"/><use x="157.0000000000" y="38.0000000000" xlink:href="#block"/><use x="171.0000000000" y="38.0000000000" xlink:href="#block"/><use x="199.0000000000" y="38.0000000000" xlink:href="#block"/><use x="206.0000000000" y="38.0000000000" xlink:href="#block"/><use x="220.0000000000" y="38.0000000000" xlink:href="#block"/><use x="227.0000000000" y="38.0000000000" xlink:href="#block"/><use x="248.0000000000" y="38.0000000000" xlink:href="#block"/><use x="262.0000000000" y="38.0000000000" xlink:href="#block"/><use x="269.0000000000" y="38.0000000000" xlink:href="#block"/><use x="276.0000000000" y="38.0000000000" xlink:href="#block"/><use x="290.0000000000" y="38.0000000000" xlink:href="#block"/><use x="10.0000000000" y="45.0000000000" xlink:href="#block"/><use x="52.0000000000" y="45.0000000000" xlink:href="#block"/><use x="66.0000000000" y="45.0000000000" xlink:href="#block"/><use x="73.0000000000" y="45.0000000000" xlink:href="#block"/><use x="80.0000000000" y="45.0000000000" xlink:href="#block"/><use x="87.0000000000" y="45.0000000000" xlink:href="#block"/><use x="115.0000000000" y="45.0000000000" xlink:href="#block"/><use x="122.0000000000" y="45.0000000000" xlink:href="#block"/><use x="129.0000000000" y="45.0000000000" xlink:href="#block"/><use x="136.0000000000" y="45.0000000000" xlink:href="#block"/><use x="171.0000000000" y="45.0000000000" xlink:href="#block"/><use x="178.0000000000" y="45.0000000000" xlink:href="#block"/><use x="192.0000000000" y="45.0000000000" xlink:href="#block"/><use x="213.0000000000" y="45.0000000000" xlink:href="#block"/><use x="220.0000000000" y="45.0000000000" xlink:href="#block"/><use x="234.0000000000" y="45.0000000000" xlink:href="#block"/><use x="248.0000000000" y="45.0000000000" xlink:href="#block"/><use x="290.0000000000" y="45.0000000000" xlink:href="#block"/><use x="10.0000000000" y="52.0000000000" xlink:href="#block"/><use x="17.0000000000" y="52.0000000000" xlink:href="#block"/><use x="24.0000000000" y="52.0000000000" xlink:href="#block"/><use x="31.0000000000" y="52.0000000000" xlink:href="#block"/><use x="38.0000000000" y="52.0000000000" xlink:href="#block"/><use x="45.0000000000" y="52.0000000000" xlink:href="#block"/><use x="52.0000000000" y="52.0000000000" xlink:href="#block"/><use x="66.0000000000" y="52.0000000000" xlink:href="#block"/><use x="80.0000000000" y="52.0000000000" xlink:href="#block"/><use x="94.0000000000" y="52.0000000000" xlink:href="#block"/><use x="108.0000000000" y="52.0000000000" xlink:href="#block"/><use x="122.0000000000" y="52.0000000000" xlink:href="#block"/><use x="136.0000000000" y="52.0000000000" xlink:href="#block"/><use x="150.0000000000" y="52.0000000000" xlink:href="#block"/><use x="164.0000000000" y="52.0000000000" xlink:href="#block"/><use x="178.0000000000" y="52.0000000000" xlink:href="#block"/><use x="192.0000000000" y="52.0000000000" xlink:href="#block"/><use x="206.0000000000" y="52.0000000000" xlink:href="#block"/><use x="220.0000000000" y="52.0000000000" xlink:href="#block"/><use x="234.0000000000" y="52.0000000000" xlink:href="#block"/><use x="248.0000000000" y="52.0000000000" xlink:href="#block"/><use x="255.0000000000" y="52.0000000000" xlink:href="#block"/><use x="262.0000000000" y="52.0000000000" xlink:href="#block"/><use x="269.0000000000" y="52.0000000000" xlink:href="#block"/><use x="276.0000000000" y="52.0000000000" xlink:href="#block"/><use x="283.0000000000" y="52.0000000000" xlink:href="#block"/><use x="290.0000000000" y="52.0000000000" xlink:href="#block"/><use x="66.0000000000" y="59.0000000000" xlink:href="#block"/><use x="73.0000000000" y="59.0000000000" xlink:href="#block"/><use x="80.0000000000" y="59.0000000000" xlink:href="#block"/><use x="94.0000000000" y="59.0000000000" xlink:href="#block"/><use x="101.0000000000" y="59.0000000000" xlink:href="#block"/><use x="108.0000000000" y="59.0000000000" xlink:href="#block"/><use x="115.0000000000" y="59.0000000000" xlink:href="#block"/><use x="122.0000000000" y="59.0000000000" xlink:href="#block"/><use x="150.0000000000" y="59.0000000000" xlink:href="#block"/><use x="157.0000000000" y="59.0000000000" xlink:href="#block"/><use x="164.0000000000" y="59.0000000000" xlink:href="#block"/><use x="171.0000000000" y="59.0000000000" xlink:href="#block"/><use x="178.0000000000" y="59.0000000000" xlink:href="#block"/><use x="199.0000000000" y="59.0000000000" xlink:href="#block"/><use x="206.0000000000" y="59.0000000000" xlink:href="#block"/><use x="213.0000000000" y="59.0000000000" xlink:href="#block"/><use x="220.0000000000" y="59.0000000000" xlink:href="#block"/><use x="227.0000000000" y="59.0000000000" xlink:href="#block"/><use x="10.0000000000" y="66.0000000000" xlink:href="#block"/><use x="24.0000000000" y="66.0000000000" xlink:href="#block"/><use x="31.0000000000" y="66.0000000000" xlink:href="#block"/><use x="38.0000000000" y="66.0000000000" xlink:href="#block"/><use x="45.0000000000" y="66.0000000000" xlink:href="#block"/><use x="52.0000000000" y="66.0000000000" xlink:href="#block"/><use x="73.0000000000" y="66.0000000000" xlink:href="#block"/><use x="80.0000000000" y="66.0000000000" xlink:href="#block"/><use x="122.0000000000" y="66.0000000000" xlink:href="#block"/><use x="136.0000000000" y="66.0000000000" xlink:href="#block"/><use x="157.0000000000" y="66.0000000000" xlink:href="#block"/><use x="178.0000000000" y="66.0000000000" xlink:href="#block"/><use x="185.0000000000" y="66.0000000000" xlink:href="#block"/><use x="199.0000000000" y="66.0000000000" xlink:href="#block"/><use x="213.0000000000" y="66.0000000000" xlink:href="#block"/><use x="220.0000000000" y="66.0000000000" xlink:href="#block"/><use x="248.0000000000" y="66.0000000000" xlink:href="#block"/><use x="255.0000000000" y="66.0000000000" xlink:href="#block"/><use x="262.0000000000" y="66.0000000000" xlink:href="#block"/><use x="269.0000000000" y="66.0000000000" xlink:href="#block"/><use x="276.0000000000" y="66.0000000000" xlink:href="#block"/><use x="45.0000000000" y="73.0000000000" xlink:href="#block"/><use x="66.0000000000" y="73.0000000000" xlink:href="#block"/><use x="94.0000000000" y="73.0000000000" xlink:href="#block"/><use x="108.0000000000" y="73.0000000000" xlink:href="#block"/><use x="115.0000000000" y="73.0000000000" xlink:href="#block"/><use x="136.0000000000" y="73.0000000000" xlink:href="#block"/><use x="157.0000000000" y="73.0000000000" xlink:href="#block"/><use x="164.0000000000" y="73.0000000000" xlink:href="#block"/><use x="178.0000000000" y="73.0000000000" xlink:href="#block"/><use x="192.0000000000" y="73.0000000000" xlink:href="#block"/><use x="220.0000000000" y="73.0000000000" xlink:href="#block"/><use x="248.0000000000" y="73.0000000000" xlink:href="#block"/><use x="255.0000000000" y="73.0000000000" xlink:href="#block"/><use x="262.0000000000" y="73.0000000000" xlink:href="#block"/><use x="269.0000000000" y="73.0000000000" xlink:href="#block"/><use x="283.0000000000" y="73.0000000000" xlink:href="#block"/><use x="290.0000000000" y="73.0000000000" xlink:href="#block"/><use x="24.0000000000" y="80.0000000000" xlink:href="#block"/><use x="31.0000000000" y="80.0000000000" xlink:href="#block"/><use x="38.0000000000" y="80.0000000000" xlink:href="#block"/><use x="52.0000000000" y="80.0000000000" xlink:href="#block"/><use x="59.0000000000" y="80.0000000000" xlink:href="#block"/><use x="87.0000000000" y="80.0000000000" xlink:href="#block"/><use x="94.0000000000" y="80.0000000000" xlink:href="#block"/><use x="101.0000000000" y="80.0000000000" xlink:href="#block"/><use x="115.0000000000" y="80.0000000000" xlink:href="#block"/><use x="122.0000000000" y="80.0000000000" xlink:href="#block"/><use x="129.0000000000" y="80.0000000000" xlink:href="#block"/><use x="136.0000000000" y="80.0000000000" xlink:href="#block"/><use x="150.0000000000" y="80.0000000000" xlink:href="#block"/><use x="185.0000000000" y="80.0000000000" xlink:href="#block"/><use x="206.0000000000" y="80.0000000000" xlink:href="#block"/><use x="213.0000000000" y="80.0000000000" xlink:href="#block"/><use x="220.0000000000" y="80.0000000000" xlink:href="#block"/><use x="234.0000000000" y="80.0000000000" xlink:href="#block"/><use x="241.0000000000" y="80.0000000000" xlink:href="#block"/><use x="262.0000000000" y="80.0000000000" xlink:href="#block"/><use x="269.0000000000" y="80.0000000000" xlink:href="#block"/><use x="10.0000000000" y="87.0000000000" xlink:href="#block"/><use x="17.0000000000" y="87.0000000000" xlink:href="#block"/><use x="45.0000000000" y="87.0000000000" xlink:href="#block"/><use x="66.0000000000" y="87.0000000000" xlink:href="#block"/><use x="73.0000000000" y="87.0000000000" xlink:href="#block"/><use x="80.0000000000" y="87.0000000000" xlink:href="#block"/><use x="101.0000000000" y="87.0000000000" xlink:href="#block"/><use x="129.0000000000" y="87.0000000000" xlink:href="#block"/><use x="143.0000000000" y="87.0000000000" xlink:href="#block"/><use x="157.0000000000" y="87.0000000000" xlink:href="#block"/><use x="164.0000000000" y="87.0000000000" xlink:href="#block"/><use x="171.0000000000" y="87.0000000000" xlink:href="#block"/><use x="178.0000000000" y="87.0000000000" xlink:href="#block"/><use x="185.0000000000" y="87.0000000000" xlink:href="#block"/><use x="192.0000000000" y="87.0000000000" xlink:href="#block"/><use x="227.0000000000" y="87.0000000000" xlink:href="#block"/><use x="248.0000000000" y="87.0000000000" xlink:href="#block"/><use x="255.0000000000" y="87.0000000000" xlink:href="#block"/><use x="262.0000000000" y="87.0000000000" xlink:href="#block"/><use x="269.0000000000" y="87.0000000000" xlink:href="#block"/><use x="276.0000000000" y="87.0000000000" xlink:href="#block"/><use x="17.0000000000" y="94.0000000000" xlink:href="#block"/><use x="24.0000000000" y="94.0000000000" xlink:href="#block"/><use x="31.0000000000" y="94.0000000000" xlink:href="#block"/><use x="52.0000000000" y="94.0000000000" xlink:href="#block"/><use x="73.0000000000" y="94.0000000000" xlink:href="#block"/><use x="80.0000000000" y="94.0000000000" xlink:href="#block"/><use x="87.0000000000" y="94.0000000000" xlink:href="#block"/><use x="94.0000000000" y="94.0000000000" xlink:href="#block"/><use x="108.0000000000" y="94.0000000000" xlink:href="#block"/><use x="115.0000000000" y="94.0000000000" xlink:href="#block"/><use x="129.0000000000" y="94.0000000000" xlink:href="#block"/><use x="136.0000000000" y="94.0000000000" xlink:href="#block"/><use x="157.0000000000" y="94.0000000000" xlink:href="#block"/><use x="164.0000000000" y="94.0000000000" xlink:href="#block"/><use x="185.0000000000" y="94.0000000000" xlink:href="#block"/><use x="199.0000000000" y="94.0000000000" xlink:href="#block"/><use x="213.0000000000" y="94.0000000000" xlink:href="#block"/><use x="220.0000000000" y="94.0000000000" xlink:href="#block"/><use x="234.0000000000" y="94.0000000000" xlink:href="#block"/><use x="241.0000000000" y="94.0000000000" xlink:href="#block"/><use x="262.0000000000" y="94.0000000000" xlink:href="#block"/><use x="17.0000000000" y="101.0000000000" xlink:href="#block"/><use x="24.0000000000" y="101.0000000000" xlink:href="#block"/><use x="66.0000000000" y="101.0000000000" xlink:href="#block"/><use x="73.0000000000" y="101.0000000000" xlink:href="#block"/><use x="94.0000000000" y="101.0000000000" xlink:href="#block"/><use x="101.0000000000" y="101.0000000000" xlink:href="#block"/><use x="108.0000000000" y="101.0000000000" xlink:href="#block"/><use x="122.0000000000" y="101.0000000000" xlink:href="#block"/><use x="136.0000000000" y="101.0000000000" xlink:href="#block"/><use x="150.0000000000" y="101.0000000000" xlink:href="#block"/><use x="157.0000000000" y="101.0000000000" xlink:href="#block"/><use x="178.0000000000" y="101.0000000000" xlink:href="#block"/><use x="199.0000000000" y="101.0000000000" xlink:href="#block"/><use x="234.0000000000" y="101.0000000000" xlink:href="#block"/><use x="241.0000000000" y="101.0000000000" xlink:href="#block"/><use x="248.0000000000" y="101.0000000000" xlink:href="#block"/><use x="262.0000000000" y="101.0000000000" xlink:href="#block"/><use x="290.0000000000" y="101.0000000000" xlink:href="#block"/><use x="10.0000000000" y="108.0000000000" xlink:href="#block"/><use x="17.0000000000" y="108.0000000000" xlink:href="#block"/><use x="24.0000000000" y="108.0000000000" xlink:href="#block"/><use x="31.0000000000" y="108.0000000000" xlink:href="#block"/><use x="38.0000000000" y="108.0000000000" xlink:href="#block"/><use x="45.0000000000" y="108.0000000000" xlink:href="#block"/><use x="52.0000000000" y="108.0000000000" xlink:href="#block"/><use x="59.0000000000" y="108.0000000000" xlink:href="#block"/><use x="66.0000000000" y="108.0000000000" xlink:href="#block"/><use x="73.0000000000" y="108.0000000000" xlink:href="#block"/><use x="80.0000000000" y="108.0000000000" xlink:href="#block"/><use x="87.0000000000" y="108.0000000000" xlink:href="#block"/><use x="94.0000000000" y="108.0000000000" xlink:href="#block"/><use x="101.0000000000" y="108.0000000000" xlink:href="#block"/><use x="108.0000000000" y="108.0000000000" xlink:href="#block"/><use x="129.0000000000" y="108.0000000000" xlink:href="#block"/><use x="136.0000000000" y="108.0000000000" xlink:href="#block"/><use x="143.0000000000" y="108.0000000000" xlink:href="#block"/><use x="164.0000000000" y="108.0000000000" xlink:href="#block"/><use x="185.0000000000" y="108.0000000000" xlink:href="#block"/><use x="192.0000000000" y="108.0000000000" xlink:href="#block"/><use x="199.0000000000" y="108.0000000000" xlink:href="#block"/><use x="206.0000000000" y="108.0000000000" xlink:href="#block"/><use x="213.0000000000" y="108.0000000000" xlink:href="#block"/><use x="234.0000000000" y="108.0000000000" xlink:href="#block"/><use x="241.0000000000" y="108.0000000000" xlink:href="#block"/><use x="255.0000000000" y="108.0000000000" xlink:href="#block"/><use x="269.0000000000" y="108.0000000000" xlink:href="#block"/><use x="276.0000000000" y="108.0000000000" xlink:href="#block"/><use x="283.0000000000" y="108.0000000000" xlink:href="#block"/><use x="290.0000000000" y="108.0000000000" xlink:href="#block"/><use x="17.0000000000" y="115.0000000000" xlink:href="#block"/><use x="24.0000000000" y="115.0000000000" xlink:href="#block"/><use x="31.0000000000" y="115.0000000000" xlink:href="#block"/><use x="38.0000000000" y="115.0000000000" xlink:href="#block"/><use x="45.0000000000" y="115.0000000000" xlink:href="#block"/><use x="87.0000000000" y="115.0000000000" xlink:href="#block"/><use x="94.0000000000" y="115.0000000000" xlink:href="#block"/><use x="101.0000000000" y="115.0000000000" xlink:href="#block"/><use x="115.0000000000" y="115.0000000000" xlink:href="#block"/><use x="129.0000000000" y="115.0000000000" xlink:href="#block"/><use x="136.0000000000" y="115.0000000000" xlink:href="#block"/><use x="143.0000000000" y="115.0000000000" xlink:href="#block"/><use x="150.0000000000" y="115.0000000000" xlink:href="#block"/><use x="178.0000000000" y="115.0000000000" xlink:href="#block"/><use x="185.0000000000" y="115.0000000000" xlink:href="#block"/><use x="220.0000000000" y="115.0000000000" xlink:href="#block"/><use x="227.0000000000" y="115.0000000000" xlink:href="#block"/><use x="241.0000000000" y="115.0000000000" xlink:href="#block"/><use x="248.0000000000" y="115.0000000000" xlink:href="#block"/><use x="262.0000000000" y="115.0000000000" xlink:href="#block"/><use x="283.0000000000" y="115.0000000000" xlink:href="#block"/><use x="10.0000000000" y="122.0000000000" xlink:href="#block"/><use x="17.0000000000" y="122.0000000000" xlink:href="#block"/><use x="31.0000000000" y="122.0000000000" xlink:href="#block"/><use x="45.0000000000" y="122.0000000000" xlink:href="#block"/><use x="52.0000000000" y="122.0000000000" xlink:href="#block"/><use x="73.0000000000" y="122.0000000000" xlink:href="#block"/><use x="129.0000000000" y="122.0000000000" xlink:href="#block"/><use x="136.0000000000" y="122.0000000000" xlink:href="#block"/><use x="143.0000000000" y="122.0000000000" xlink:href="#block"/><use x="150.0000000000" y="122.0000000000" xlink:href="#block"/><use x="157.0000000000" y="122.0000000000" xlink:href="#block"/><use x="178.0000000000" y="122.0000000000" xlink:href="#block"/><use x="185.0000000000" y="122.0000000000" xlink:href="#block"/><use x="192.0000000000" y="122.0000000000" xlink:href="#block"/><use x="199.0000000000" y="122.0000000000" xlink:href="#block"/><use x="206.0000000000" y="122.0000000000" xlink:href="#block"/><use x="241.0000000000" y="122.0000000000" xlink:href="#block"/><use x="248.0000000000" y="122.0000000000" xlink:href="#block"/><use x="262.0000000000" y="122.0000000000" xlink:href="#block"/><use x="17.0000000000" y="129.0000000000" xlink:href="#block"/><use x="31.0000000000" y="129.0000000000" xlink:href="#block"/><use x="45.0000000000" y="129.0000000000" xlink:href="#block"/><use x="59.0000000000" y="129.0000000000" xlink:href="#block"/><use x="80.0000000000" y="129.0000000000" xlink:href="#block"/><use x="108.0000000000" y="129.0000000000" xlink:href="#block"/><use x="129.0000000000" y="129.0000000000" xlink:href="#block"/><use x="136.0000000000" y="129.0000000000" xlink:href="#block"/><use x="150.0000000000" y="129.0000000000" xlink:href="#block"/><use x="157.0000000000" y="129.0000000000" xlink:href="#block"/><use x="164.0000000000" y="129.0000000000" xlink:href="#block"/><use x="171.0000000000" y="129.0000000000" xlink:href="#block"/><use x="185.0000000000" y="129.0000000000" xlink:href="#block"/><use x="199.0000000000" y="129.0000000000" xlink:href="#block"/><use x="220.0000000000" y="129.0000000000" xlink:href="#block"/><use x="227.0000000000" y="129.0000000000" xlink:href="#block"/><use x="241.0000000000" y="129.0000000000" xlink:href="#block"/><use x="248.0000000000" y="129.0000000000" xlink:href="#block"/><use x="255.0000000000" y="129.0000000000" xlink:href="#block"/><use x="262.0000000000" y="129.0000000000" xlink:href="#block"/><use x="283.0000000000" y="129.0000000000" xlink:href="#block"/><use x="17.0000000000" y="136.0000000000" xlink:href="#block"/><use x="38.0000000000" y="136.0000000000" xlink:href="#block"/><use x="52.0000000000" y="136.0000000000" xlink:href="#block"/><use x="59.0000000000" y="136.0000000000" xlink:href="#block"/><use x="66.0000000000" y="136.0000000000" xlink:href="#block"/><use x="73.0000000000" y="136.0000000000" xlink:href="#block"/><use x="80.0000000000" y="136.0000000000" xlink:href="#block"/><use x="87.0000000000" y="136.0000000000" xlink:href="#block"/><use x="94.0000000000" y="136.0000000000" xlink:href="#block"/><use x="101.0000000000" y="136.0000000000" xlink:href="#block"/><use x="122.0000000000" y="136.0000000000" xlink:href="#block"/><use x="129.0000000000" y="136.0000000000" xlink:href="#block"/><use x="157.0000000000" y="136.0000000000" xlink:href="#block"/><use x="178.0000000000" y="136.0000000000" xlink:href="#block"/><use x="185.0000000000" y="136.0000000000" xlink:href="#block"/><use x="192.0000000000" y="136.0000000000" xlink:href="#block"/><use x="199.0000000000" y="136.0000000000" xlink:href="#block"/><use x="213.0000000000" y="136.0000000000" xlink:href="#block"/><use x="220.0000000000" y="136.0000000000" xlink:href="#block"/><use x="234.0000000000" y="136.0000000000" xlink:href="#block"/><use x="241.0000000000" y="136.0000000000" xlink:href="#block"/><use x="262.0000000000" y="136.0000000000" xlink:href="#block"/><use x="276.0000000000" y="136.0000000000" xlink:href="#block"/><use x="283.0000000000" y="136.0000000000" xlink:href="#block"/><use x="10.0000000000" y="143.0000000000" xlink:href="#block"/><use x="31.0000000000" y="143.0000000000" xlink:href="#block"/><use x="45.0000000000" y="143.0000000000" xlink:href="#block"/><use x="59.0000000000" y="143.0000000000" xlink:href="#block"/><use x="80.0000000000" y="143.0000000000" xlink:href="#block"/><use x="87.0000000000" y="143.0000000000" xlink:href="#block"/><use x="129.0000000000" y="143.0000000000" xlink:href="#block"/><use x="136.0000000000" y="143.0000000000" xlink:href="#block"/><use x="143.0000000000" y="143.0000000000" xlink:href="#block"/><use x="150.0000000000" y="143.0000000000" xlink:href="#block"/><use x="157.0000000000" y="143.0000000000" xlink:href="#block"/><use x="164.0000000000" y="143.0000000000" xlink:href="#block"/><use x="185.0000000000" y="143.0000000000" xlink:href="#block"/><use x="206.0000000000" y="143.0000000000" xlink:href="#block"/><use x="227.0000000000" y="143.0000000000" xlink:href="#block"/><use x="234.0000000000" y="143.0000000000" xlink:href="#block"/><use x="248.0000000000" y="143.0000000000" xlink:href="#block"/><use x="255.0000000000" y="143.0000000000" xlink:href="#block"/><use x="262.0000000000" y="143.0000000000" xlink:href="#block"/><use x="276.0000000000" y="143.0000000000" xlink:href="#block"/><use x="290.0000000000" y="143.0000000000" xlink:href="#block"/><use x="17.0000000000" y="150.0000000000" xlink:href="#block"/><use x="24.0000000000" y="150.0000000000" xlink:href="#block"/><use x="31.0000000000" y="150.0000000000" xlink:href="#block"/><use x="38.0000000000" y="150.0000000000" xlink:href="#block"/><use x="45.0000000000" y="150.0000000000" xlink:href="#block"/><use x="52.0000000000" y="150.0000000000" xlink:href="#block"/><use x="59.0000000000" y="150.0000000000" xlink:href="#block"/><use x="66.0000000000" y="150.0000000000" xlink:href="#block"/><use x="94.0000000000" y="150.0000000000" xlink:href="#block"/><use x="101.0000000000" y="150.0000000000" xlink:href="#block"/><use x="108.0000000000" y="150.0000000000" xlink:href="#block"/><use x="115.0000000000" y="150.0000000000" xlink:href="#block"/><use x="150.0000000000" y="150.0000000000" xlink:href="#block"/><use x="157.0000000000" y="150.0000000000" xlink:href="#block"/><use x="192.0000000000" y="150.0000000000" xlink:href="#block"/><use x="199.0000000000" y="150.0000000000" xlink:href="#block"/><use x="206.0000000000" y="150.0000000000" xlink:href="#block"/><use x="213.0000000000" y="150.0000000000" xlink:href="#block"/><use x="234.0000000000" y="150.0000000000" xlink:href="#block"/><use x="241.0000000000" y="150.0000000000" xlink:href="#block"/><use x="255.0000000000" y="150.0000000000" xlink:href="#block"/><use x="262.0000000000" y="150.0000000000" xlink:href="#block"/><use x="276.0000000000" y="150.0000000000" xlink:href="#block"/><use x="283.0000000000" y="150.0000000000" xlink:href="#block"/><use x="10.0000000000" y="157.0000000000" xlink:href="#block"/><use x="17.0000000000" y="157.0000000000" xlink:href="#block"/><use x="24.0000000000" y="157.0000000000" xlink:href="#block"/><use x="31.0000000000" y="157.0000000000" xlink:href="#block"/><use x="66.0000000000" y="157.0000000000" xlink:href="#block"/><use x="73.0000000000" y="157.0000000000" xlink:href="#block"/><use x="80.0000000000" y="157.0000000000" xlink:href="#block"/><use x="108.0000000000" y="157.0000000000" xlink:href="#block"/><use x="136.0000000000" y="157.0000000000" xlink:href="#block"/><use x="143.0000000000" y="157.0000000000" xlink:href="#block"/><use x="157.0000000000" y="157.0000000000" xlink:href="#block"/><use x="164.0000000000" y="157.0000000000" xlink:href="#block"/><use x="171.0000000000" y="157.0000000000" xlink:href="#block"/><use x="178.0000000000" y="157.0000000000" xlink:href="#block"/><use x="199.0000000000" y="157.0000000000" xlink:href="#block"/><use x="241.0000000000" y="157.0000000000" xlink:href="#block"/><use x="262.0000000000" y="157.0000000000" xlink:href="#block"/><use x="269.0000000000" y="157.0000000000" xlink:href="#block"/><use x="283.0000000000" y="157.0000000000" xlink:href="#block"/><use x="17.0000000000" y="164.0000000000" xlink:href="#block"/><use x="31.0000000000" y="164.0000000000" xlink:href="#block"/><use x="38.0000000000" y="164.0000000000" xlink:href="#block"/><use x="52.0000000000" y="164.0000000000" xlink:href="#block"/><use x="59.0000000000" y="164.0000000000" xlink:href="#block"/><use x="94.0000000000" y="164.0000000000" xlink:href="#block"/><use x="101.0000000000" y="164.0000000000" xlink:href="#block"/><use x="108.0000000000" y="164.0000000000" xlink:href="#block"/><use x="115.0000000000" y="164.0000000000" xlink:href="#block"/><use x="129.0000000000" y="164.0000000000" xlink:href="#block"/><use x="136.0000000000" y="164.0000000000" xlink:href="#block"/><use x="192.0000000000" y="164.0000000000" xlink:href="#block"/><use x="199.0000000000" y="164.0000000000" xlink:href="#block"/><use x="234.0000000000" y="164.0000000000" xlink:href="#block"/><use x="241.0000000000" y="164.0000000000" xlink:href="#block"/><use x="255.0000000000" y="164.0000000000" xlink:href="#block"/><use x="269.0000000000" y="164.0000000000" xlink:href="#block"/><use x="31.0000000000" y="171.0000000000" xlink:href="#block"/><use x="38.0000000000" y="171.0000000000" xlink:href="#block"/><use x="80.0000000000" y="171.0000000000" xlink:href="#block"/><use x="87.0000000000" y="171.0000000000" xlink:href="#block"/><use x="94.0000000000" y="171.0000000000" xlink:href="#block"/><use x="108.0000000000" y="171.0000000000" xlink:href="#block"/><use x="122.0000000000" y="171.0000000000" xlink:href="#block"/><use x="150.0000000000" y="171.0000000000" xlink:href="#block"/><use x="157.0000000000" y="171.0000000000" xlink:href="#block"/><use x="164.0000000000" y="171.0000000000" xlink:href="#block"/><use x="171.0000000000" y="171.0000000000" xlink:href="#block"/><use x="178.0000000000" y="171.0000000000" xlink:href="#block"/><use x="185.0000000000" y="171.0000000000" xlink:href="#block"/><use x="192.0000000000" y="171.0000000000" xlink:href="#block"/><use x="199.0000000000" y="171.0000000000" xlink:href="#block"/><use x="206.0000000000" y="171.0000000000" xlink:href="#block"/><use x="220.0000000000" y="171.0000000000" xlink:href="#block"/><use x="227.0000000000" y="171.0000000000" xlink:href="#block"/><use x="248.0000000000" y="171.0000000000" xlink:href="#block"/><use x="262.0000000000" y="171.0000000000" xlink:href="#block"/><use x="283.0000000000" y="171.0000000000" xlink:href="#block"/><use x="290.0000000000" y="171.0000000000" xlink:href="#block"/><use x="17.0000000000" y="178.0000000000" xlink:href="#block"/><use x="38.0000000000" y="178.0000000000" xlink:href="#block"/><use x="45.0000000000" y="178.0000000000" xlink:href="#block"/><use x="52.0000000000" y="178.0000000000" xlink:href="#block"/><use x="73.0000000000" y="178.0000000000" xlink:href="#block"/><use x="80.0000000000" y="178.0000000000" xlink:href="#block"/><use x="108.0000000000" y="178.0000000000" xlink:href="#block"/><use x="122.0000000000" y="178.0000000000" xlink:href="#block"/><use x="136.0000000000" y="178.0000000000" xlink:href="#block"/><use x="157.0000000000" y="178.0000000000" xlink:href="#block"/><use x="178.0000000000" y="178.0000000000" xlink:href="#block"/><use x="185.0000000000" y="178.0000000000" xlink:href="#block"/><use x="199.0000000000" y="178.0000000000" xlink:href="#block"/><use x="206.0000000000" y="178.0000000000" xlink:href="#block"/><use x="220.0000000000" y="178.0000000000" xlink:href="#block"/><use x="241.0000000000" y="178.0000000000" xlink:href="#block"/><use x="248.0000000000" y="178.0000000000" xlink:href="#block"/><use x="255.0000000000" y="178.0000000000" xlink:href="#block"/><use x="269.0000000000" y="178.0000000000" xlink:href="#block"/><use x="276.0000000000" y="178.0000000000" xlink:href="#block"/><use x="283.0000000000" y="178.0000000000" xlink:href="#block"/><use x="290.0000000000" y="178.0000000000" xlink:href="#block"/><use x="17.0000000000" y="185.0000000000" xlink:href="#block"/><use x="24.0000000000" y="185.0000000000" xlink:href="#block"/><use x="31.0000000000" y="185.0000000000" xlink:href="#block"/><use x="38.0000000000" y="185.0000000000" xlink:href="#block"/><use x="73.0000000000" y="185.0000000000" xlink:href="#block"/><use x="115.0000000000" y="185.0000000000" xlink:href="#block"/><use x="136.0000000000" y="185.0000000000" xlink:href="#block"/><use x="157.0000000000" y="185.0000000000" xlink:href="#block"/><use x="227.0000000000" y="185.0000000000" xlink:href="#block"/><use x="234.0000000000" y="185.0000000000" xlink:href="#block"/><use x="241.0000000000" y="185.0000000000" xlink:href="#block"/><use x="248.0000000000" y="185.0000000000" xlink:href="#block"/><use x="262.0000000000" y="185.0000000000" xlink:href="#block"/><use x="269.0000000000" y="185.0000000000" xlink:href="#block"/><use x="10.0000000000" y="192.0000000000" xlink:href="#block"/><use x="38.0000000000" y="192.0000000000" xlink:href="#block"/><use x="52.0000000000" y="192.0000000000" xlink:href="#block"/><use x="73.0000000000" y="192.0000000000" xlink:href="#block"/><use x="80.0000000000" y="192.0000000000" xlink:href="#block"/><use x="87.0000000000" y="192.0000000000" xlink:href="#block"/><use x="101.0000000000" y="192.0000000000" xlink:href="#block"/><use x="108.0000000000" y="192.0000000000" xlink:href="#block"/><use x="115.0000000000" y="192.0000000000" xlink:href="#block"/><use x="122.0000000000" y="192.0000000000" xlink:href="#block"/><use x="150.0000000000" y="192.0000000000" xlink:href="#block"/><use x="185.0000000000" y="192.0000000000" xlink:href="#block"/><use x="199.0000000000" y="192.0000000000" xlink:href="#block"/><use x="213.0000000000" y="192.0000000000" xlink:href="#block"/><use x="220.0000000000" y="192.0000000000" xlink:href="#block"/><use x="227.0000000000" y="192.0000000000" xlink:href="#block"/><use x="241.0000000000" y="192.0000000000" xlink:href="#block"/><use x="255.0000000000" y="192.0000000000" xlink:href="#block"/><use x="262.0000000000" y="192.0000000000" xlink:href="#block"/><use x="269.0000000000" y="192.0000000000" xlink:href="#block"/><use x="290.0000000000" y="192.0000000000" xlink:href="#block"/><use x="10.0000000000" y="199.0000000000" xlink:href="#block"/><use x="38.0000000000" y="199.0000000000" xlink:href="#block"/><use x="45.0000000000" y="199.0000000000" xlink:href="#block"/><use x="59.0000000000" y="199.0000000000" xlink:href="#block"/><use x="66.0000000000" y="199.0000000000" xlink:href="#block"/><use x="108.0000000000" y="199.0000000000" xlink:href="#block"/><use x="115.0000000000" y="199.0000000000" xlink:href="#block"/><use x="122.0000000000" y="199.0000000000" xlink:href="#block"/><use x="136.0000000000" y="199.0000000000" xlink:href="#block"/><use x="143.0000000000" y="199.0000000000" xlink:href="#block"/><use x="157.0000000000" y="199.0000000000" xlink:href="#block"/><use x="164.0000000000" y="199.0000000000" xlink:href="#block"/><use x="171.0000000000" y="199.0000000000" xlink:href="#block"/><use x="178.0000000000" y="199.0000000000" xlink:href="#block"/><use x="192.0000000000" y="199.0000000000" xlink:href="#block"/><use x="199.0000000000" y="199.0000000000" xlink:href="#block"/><use x="206.0000000000" y="199.0000000000" xlink:href="#block"/><use x="227.0000000000" y="199.0000000000" xlink:href="#block"/><use x="248.0000000000" y="199.0000000000" xlink:href="#block"/><use x="255.0000000000" y="199.0000000000" xlink:href="#block"/><use x="262.0000000000" y="199.0000000000" xlink:href="#block"/><use x="283.0000000000" y="199.0000000000" xlink:href="#block"/><use x="290.0000000000" y="199.0000000000" xlink:href="#block"/><use x="24.0000000000" y="206.0000000000" xlink:href="#block"/><use x="38.0000000000" y="206.0000000000" xlink:href="#block"/><use x="52.0000000000" y="206.0000000000" xlink:href="#block"/><use x="73.0000000000" y="206.0000000000" xlink:href="#block"/><use x="115.0000000000" y="206.0000000000" xlink:href="#block"/><use x="129.0000000000" y="206.0000000000" xlink:href="#block"/><use x="136.0000000000" y="206.0000000000" xlink:href="#block"/><use x="150.0000000000" y="206.0000000000" xlink:href="#block"/><use x="157.0000000000" y="206.0000000000" xlink:href="#block"/><use x="164.0000000000" y="206.0000000000" xlink:href="#block"/><use x="178.0000000000" y="206.0000000000" xlink:href="#block"/><use x="199.0000000000" y="206.0000000000" xlink:href="#block"/><use x="206.0000000000" y="206.0000000000" xlink:href="#block"/><use x="241.0000000000" y="206.0000000000" xlink:href="#block"/><use x="262.0000000000" y="206.0000000000" xlink:href="#block"/><use x="269.0000000000" y="206.0000000000" xlink:href="#block"/><use x="276.0000000000" y="206.0000000000" xlink:href="#block"/><use x="283.0000000000" y="206.0000000000" xlink:href="#block"/><use x="10.0000000000" y="213.0000000000" xlink:href="#block"/><use x="38.0000000000" y="213.0000000000" xlink:href="#block"/><use x="59.0000000000" y="213.0000000000" xlink:href="#block"/><use x="66.0000000000" y="213.0000000000" xlink:href="#block"/><use x="73.0000000000" y="213.0000000000" xlink:href="#block"/><use x="80.0000000000" y="213.0000000000" xlink:href="#block"/><use x="87.0000000000" y="213.0000000000" xlink:href="#block"/><use x="101.0000000000" y="213.0000000000" xlink:href="#block"/><use x="108.0000000000" y="213.0000000000" xlink:href="#block"/><use x="115.0000000000" y="213.0000000000" xlink:href="#block"/><use x="157.0000000000" y="213.0000000000" xlink:href="#block"/><use x="164.0000000000" y="213.0000000000" xlink:href="#block"/><use x="192.0000000000" y="213.0000000000" xlink:href="#block"/><use x="199.0000000000" y="213.0000000000" xlink:href="#block"/><use x="220.0000000000" y="213.0000000000" xlink:href="#block"/><use x="234.0000000000" y="213.0000000000" xlink:href="#block"/><use x="248.0000000000" y="213.0000000000" xlink:href="#block"/><use x="262.0000000000" y="213.0000000000" xlink:href="#block"/><use x="283.0000000000" y="213.0000000000" xlink:href="#block"/><use x="290.0000000000" y="213.0000000000" xlink:href="#block"/><use x="10.0000000000" y="220.0000000000" xlink:href="#block"/><use x="45.0000000000" y="220.0000000000" xlink:href="#block"/><use x="52.0000000000" y="220.0000000000" xlink:href="#block"/><use x="59.0000000000" y="220.0000000000" xlink:href="#block"/><use x="73.0000000000" y="220.0000000000" xlink:href="#block"/><use x="94.0000000000" y="220.0000000000" xlink:href="#block"/><use x="101.0000000000" y="220.0000000000" xlink:href="#block"/><use x="108.0000000000" y="220.0000000000" xlink:href="#block"/><use x="122.0000000000" y="220.0000000000" xlink:href="#block"/><use x="150.0000000000" y="220.0000000000" xlink:href="#block"/><use x="164.0000000000" y="220.0000000000" xlink:href="#block"/><use x="171.0000000000" y="220.0000000000" xlink:href="#block"/><use x="178.0000000000" y="220.0000000000" xlink:href="#block"/><use x="185.0000000000" y="220.0000000000" xlink:href="#block"/><use x="192.0000000000" y="220.0000000000" xlink:href="#block"/><use x="206.0000000000" y="220.0000000000" xlink:href="#block"/><use x="213.0000000000" y="220.0000000000" xlink:href="#block"/><use x="234.0000000000" y="220.0000000000" xlink:href="#block"/><use x="241.0000000000" y="220.0000000000" xlink:href="#block"/><use x="255.0000000000" y="220.0000000000" xlink:href="#block"/><use x="269.0000000000" y="220.0000000000" xlink:href="#block"/><use x="276.0000000000" y="220.0000000000" xlink:href="#block"/><use x="283.0000000000" y="220.0000000000" xlink:href="#block"/><use x="290.0000000000" y="220.0000000000" xlink:href="#block"/><use x="10.0000000000" y="227.0000000000" xlink:href="#block"/><use x="24.0000000000" y="227.0000000000" xlink:href="#block"/><use x="31.0000000000" y="227.0000000000" xlink:href="#block"/><use x="38.0000000000" y="227.0000000000" xlink:href="#block"/><use x="45.0000000000" y="227.0000000000" xlink:href="#block"/><use x="66.0000000000" y="227.0000000000" xlink:href="#block"/><use x="94.0000000000" y="227.0000000000" xlink:href="#block"/><use x="101.0000000000" y="227.0000000000" xlink:href="#block"/><use x="108.0000000000" y="227.0000000000" xlink:href="#block"/><use x="129.0000000000" y="227.0000000000" xlink:href="#block"/><use x="164.0000000000" y="227.0000000000" xlink:href="#block"/><use x="171.0000000000" y="227.0000000000" xlink:href="#block"/><use x="227.0000000000" y="227.0000000000" xlink:href="#block"/><use x="248.0000000000" y="227.0000000000" xlink:href="#block"/><use x="262.0000000000" y="227.0000000000" xlink:href="#block"/><use x="10.0000000000" y="234.0000000000" xlink:href="#block"/><use x="31.0000000000" y="234.0000000000" xlink:href="#block"/><use x="52.0000000000" y="234.0000000000" xlink:href="#block"/><use x="59.0000000000" y="234.0000000000" xlink:href="#block"/><use x="66.0000000000" y="234.0000000000" xlink:href="#block"/><use x="87.0000000000" y="234.0000000000" xlink:href="#block"/><use x="94.0000000000" y="234.0000000000" xlink:href="#block"/><use x="122.0000000000" y="234.0000000000" xlink:href="#block"/><use x="136.0000000000" y="234.0000000000" xlink:href="#block"/><use x="157.0000000000" y="234.0000000000" xlink:href="#block"/><use x="171.0000000000" y="234.0000000000" xlink:href="#block"/><use x="178.0000000000" y="234.0000000000" xlink:href="#block"/><use x="192.0000000000" y="234.0000000000" xlink:href="#block"/><use x="199.0000000000" y="234.0000000000" xlink:href="#block"/><use x="220.0000000000" y="234.0000000000" xlink:href="#block"/><use x="234.0000000000" y="234.0000000000" xlink:href="#block"/><use x="241.0000000000" y="234.0000000000" xlink:href="#block"/><use x="248.0000000000" y="234.0000000000" xlink:href="#block"/><use x="255.0000000000" y="234.0000000000" xlink:href="#block"/><use x="262.0000000000" y="234.0000000000" xlink:href="#block"/><use x="66.0000000000" y="241.0000000000" xlink:href="#block"/><use x="73.0000000000" y="241.0000000000" xlink:href="#block"/><use x="87.0000000000" y="241.0000000000" xlink:href="#block"/><use x="94.0000000000" y="241.0000000000" xlink:href="#block"/><use x="115.0000000000" y="241.0000000000" xlink:href="#block"/><use x="122.0000000000" y="241.0000000000" xlink:href="#block"/><use x="136.0000000000" y="241.0000000000" xlink:href="#block"/><use x="143.0000000000" y="241.0000000000" xlink:href="#block"/><use x="150.0000000000" y="241.0000000000" xlink:href="#block"/><use x="178.0000000000" y="241.0000000000" xlink:href="#block"/><use x="192.0000000000" y="241.0000000000" xlink:href="#block"/><use x="199.0000000000" y="241.0000000000" xlink:href="#block"/><use x="206.0000000000" y="241.0000000000" xlink:href="#block"/><use x="220.0000000000" y="241.0000000000" xlink:href="#block"/><use x="234.0000000000" y="241.0000000000" xlink:href="#block"/><use x="262.0000000000" y="241.0000000000" xlink:href="#block"/><use x="269.0000000000" y="241.0000000000" xlink:href="#block"/><use x="283.0000000000" y="241.0000000000" xlink:href="#block"/><use x="10.0000000000" y="248.0000000000" xlink:href="#block"/><use x="17.0000000000" y="248.0000000000" xlink:href="#block"/><use x="24.0000000000" y="248.0000000000" xlink:href="#block"/><use x="31.0000000000" y="248.0000000000" xlink:href="#block"/><use x="38.0000000000" y="248.0000000000" xlink:href="#block"/><use x="45.0000000000" y="248.0000000000" xlink:href="#block"/><use x="52.0000000000" y="248.0000000000" xlink:href="#block"/><use x="101.0000000000" y="248.0000000000" xlink:href="#block"/><use x="136.0000000000" y="248.0000000000" xlink:href="#block"/><use x="143.0000000000" y="248.0000000000" xlink:href="#block"/><use x="164.0000000000" y="248.0000000000" xlink:href="#block"/><use x="178.0000000000" y="248.0000000000" xlink:href="#block"/><use x="213.0000000000" y="248.0000000000" xlink:href="#block"/><use x="220.0000000000" y="248.0000000000" xlink:href="#block"/><use x="234.0000000000" y="248.0000000000" xlink:href="#block"/><use x="248.0000000000" y="248.0000000000" xlink:href="#block"/><use x="262.0000000000" y="248.0000000000" xlink:href="#block"/><use x="283.0000000000" y="248.0000000000" xlink:href="#block"/><use x="10.0000000000" y="255.0000000000" xlink:href="#block"/><use x="52.0000000000" y="255.0000000000" xlink:href="#block"/><use x="66.0000000000" y="255.0000000000" xlink:href="#block"/><use x="73.0000000000" y="255.0000000000" xlink:href="#block"/><use x="94.0000000000" y="255.0000000000" xlink:href="#block"/><use x="115.0000000000" y="255.0000000000" xlink:href="#block"/><use x="150.0000000000" y="255.0000000000" xlink:href="#block"/><use x="171.0000000000" y="255.0000000000" xlink:href="#block"/><use x="178.0000000000" y="255.0000000000" xlink:href="#block"/><use x="192.0000000000" y="255.0000000000" xlink:href="#block"/><use x="206.0000000000" y="255.0000000000" xlink:href="#block"/><use x="213.0000000000" y="255.0000000000" xlink:href="#block"/><use x="234.0000000000" y="255.0000000000" xlink:href="#block"/><use x="262.0000000000" y="255.0000000000" xlink:href="#block"/><use x="269.0000000000" y="255.0000000000" xlink:href="#block"/><use x="276.0000000000" y="255.0000000000" xlink:href="#block"/><use x="290.0000000000" y="255.0000000000" xlink:href="#block"/><use x="10.0000000000" y="262.0000000000" xlink:href="#block"/><use x="24.0000000000" y="262.0000000000" xlink:href="#block"/><use x="31.0000000000" y="262.0000000000" xlink:href="#block"/><use x="38.0000000000" y="262.0000000000" xlink:href="#block"/><use x="52.0000000000" y="262.0000000000" xlink:href="#block"/><use x="66.0000000000" y="262.0000000000" xlink:href="#block"/><use x="80.0000000000" y="262.0000000000" xlink:href="#block"/><use x="87.0000000000" y="262.0000000000" xlink:href="#block"/><use x="101.0000000000" y="262.0000000000" xlink:href="#block"/><use x="136.0000000000" y="262.0000000000" xlink:href="#block"/><use x="157.0000000000" y="262.0000000000" xlink:href="#block"/><use x="164.0000000000" y="262.0000000000" xlink:href="#block"/><use x="178.0000000000" y="262.0000000000" xlink:href="#block"/><use x="199.0000000000" y="262.0000000000" xlink:href="#block"/><use x="220.0000000000" y="262.0000000000" xlink:href="#block"/><use x="234.0000000000" y="262.0000000000" xlink:href="#block"/><use x="241.0000000000" y="262.0000000000" xlink:href="#block"/><use x="248.0000000000" y="262.0000000000" xlink:href="#block"/><use x="255.0000000000" y="262.0000000000" xlink:href="#block"/><use x="262.0000000000" y="262.0000000000" xlink:href="#block"/><use x="269.0000000000" y="262.0000000000" xlink:href="#block"/><use x="283.0000000000" y="262.0000000000" xlink:href="#block"/><use x="10.0000000000" y="269.0000000000" xlink:href="#block"/><use x="24.0000000000" y="269.0000000000" xlink:href="#block"/><use x="31.0000000000" y="269.0000000000" xlink:href="#block"/><use x="38.0000000000" y="269.0000000000" xlink:href="#block"/><use x="52.0000000000" y="269.0000000000" xlink:href="#block"/><use x="66.0000000000" y="269.0000000000" xlink:href="#block"/><use x="73.0000000000" y="269.0000000000" xlink:href="#block"/><use x="80.0000000000" y="269.0000000000" xlink:href="#block"/><use x="101.0000000000" y="269.0000000000" xlink:href="#block"/><use x="108.0000000000" y="269.0000000000" xlink:href="#block"/><use x="122.0000000000" y="269.0000000000" xlink:href="#block"/><use x="143.0000000000" y="269.0000000000" xlink:href="#block"/><use x="157.0000000000" y="269.0000000000" xlink:href="#block"/><use x="171.0000000000" y="269.0000000000" xlink:href="#block"/><use x="178.0000000000" y="269.0000000000" xlink:href="#block"/><use x="192.0000000000" y="269.0000000000" xlink:href="#block"/><use x="220.0000000000" y="269.0000000000" xlink:href="#block"/><use x="227.0000000000" y="269.0000000000" xlink:href="#block"/><use x="241.0000000000" y="269.0000000000" xlink:href="#block"/><use x="262.0000000000" y="269.0000000000" xlink:href="#block"/><use x="10.0000000000" y="276.0000000000" xlink:href="#block"/><use x="24.0000000000" y="276.0000000000" xlink:href="#block"/><use x="31.0000000000" y="276.0000000000" xlink:href="#block"/><use x="38.0000000000" y="276.0000000000" xlink:href="#block"/><use x="52.0000000000" y="276.0000000000" xlink:href="#block"/><use x="66.0000000000" y="276.0000000000" xlink:href="#block"/><use x="73.0000000000" y="276.0000000000" xlink:href="#block"/><use x="80.0000000000" y="276.0000000000" xlink:href="#block"/><use x="87.0000000000" y="276.0000000000" xlink:href="#block"/><use x="101.0000000000" y="276.0000000000" xlink:href="#block"/><use x="122.0000000000" y="276.0000000000" xlink:href="#block"/><use x="143.0000000000" y="276.0000000000" xlink:href="#block"/><use x="185.0000000000" y="276.0000000000" xlink:href="#block"/><use x="227.0000000000" y="276.0000000000" xlink:href="#block"/><use x="262.0000000000" y="276.0000000000" xlink:href="#block"/><use x="269.0000000000" y="276.0000000000" xlink:href="#block"/><use x="276.0000000000" y="276.0000000000" xlink:href="#block"/><use x="283.0000000000" y="276.0000000000" xlink:href="#block"/><use x="10.0000000000" y="283.0000000000" xlink:href="#block"/><use x="52.0000000000" y="283.0000000000" xlink:href="#block"/><use x="73.0000000000" y="283.0000000000" xlink:href="#block"/><use x="108.0000000000" y="283.0000000000" xlink:href="#block"/><use x="143.0000000000" y="283.0000000000" xlink:href="#block"/><use x="157.0000000000" y="283.0000000000" xlink:href="#block"/><use x="164.0000000000" y="283.0000000000" xlink:href="#block"/><use x="171.0000000000" y="283.0000000000" xlink:href="#block"/><use x="178.0000000000" y="283.0000000000" xlink:href="#block"/><use x="192.0000000000" y="283.0000000000" xlink:href="#block"/><use x="220.0000000000" y="283.0000000000" xlink:href="#block"/><use x="241.0000000000" y="283.0000000000" xlink:href="#block"/><use x="255.0000000000" y="283.0000000000" xlink:href="#block"/><use x="262.0000000000" y="283.0000000000" xlink:href="#block"/><use x="276.0000000000" y="283.0000000000" xlink:href="#block"/><use x="290.0000000000" y="283.0000000000" xlink:href="#block"/><use x="10.0000000000" y="290.0000000000" xlink:href="#block"/><use x="17.0000000000" y="290.0000000000" xlink:href="#block"/><use x="24.0000000000" y="290.0000000000" xlink:href="#block"/><use x="31.0000000000" y="290.0000000000" xlink:href="#block"/><use x="38.0000000000" y="290.0000000000" xlink:href="#block"/><use x="45.0000000000" y="290.0000000000" xlink:href="#block"/><use x="52.0000000000" y="290.0000000000" xlink:href="#block"/><use x="66.0000000000" y="290.0000000000" xlink:href="#block"/><use x="73.0000000000" y="290.0000000000" xlink:href="#block"/><use x="94.0000000000" y="290.0000000000" xlink:href="#block"/><use x="101.0000000000" y="290.0000000000" xlink:href="#block"/><use x="122.0000000000" y="290.0000000000" xlink:href="#block"/><use x="129.0000000000" y="290.0000000000" xlink:href="#block"/><use x="136.0000000000" y="290.0000000000" xlink:href="#block"/><use x="157.0000000000" y="290.0000000000" xlink:href="#block"/><use x="192.0000000000" y="290.0000000000" xlink:href="#block"/><use x="199.0000000000" y="290.0000000000" xlink:href="#block"/><use x="206.0000000000" y="290.0000000000" xlink:href="#block"/><use x="213.0000000000" y="290.0000000000" xlink:href="#block"/><use x="220.0000000000" y="290.0000000000" xlink:href="#block"/><use x="248.0000000000" y="290.0000000000" xlink:href="#block"/><use x="255.0000000000" y="290.0000000000" xlink:href="#block"/><use x="262.0000000000" y="290.0000000000" xlink:href="#block"/><use x="276.0000000000" y="290.0000000000" xlink:href="#block"/></svg>
